<?xml version="1.0" encoding="UTF-8" standalone="no"?>
<!-- Created with Inkscape (http://www.inkscape.org/) -->

<svg
   xmlns:dc="http://purl.org/dc/elements/1.1/"
   xmlns:cc="http://creativecommons.org/ns#"
   xmlns:rdf="http://www.w3.org/1999/02/22-rdf-syntax-ns#"
   xmlns:svg="http://www.w3.org/2000/svg"
   xmlns="http://www.w3.org/2000/svg"
   xmlns:sodipodi="http://sodipodi.sourceforge.net/DTD/sodipodi-0.dtd"
   xmlns:inkscape="http://www.inkscape.org/namespaces/inkscape"
   width="160"
   height="160"
   viewBox="0 0 42.333332 42.333335"
   version="1.1"
   id="svg8"
   inkscape:version="0.92.1 r15371"
   sodipodi:docname="34Cross.svg">
  <defs
     id="defs2" />
  <sodipodi:namedview
     id="base"
     pagecolor="#ffffff"
     bordercolor="#666666"
     borderopacity="1.0"
     inkscape:pageopacity="0.0"
     inkscape:pageshadow="2"
     inkscape:zoom="2.11"
     inkscape:cx="73.898413"
     inkscape:cy="69.614083"
     inkscape:document-units="mm"
     inkscape:current-layer="layer1"
     showgrid="false"
     units="px"
     inkscape:window-width="743"
     inkscape:window-height="591"
     inkscape:window-x="710"
     inkscape:window-y="75"
     inkscape:window-maximized="0" />
  <metadata
     id="metadata5">
    <rdf:RDF>
      <cc:Work
         rdf:about="">
        <dc:format>image/svg+xml</dc:format>
        <dc:type
           rdf:resource="http://purl.org/dc/dcmitype/StillImage" />
        <dc:title></dc:title>
      </cc:Work>
    </rdf:RDF>
  </metadata>
  <g
     inkscape:label="Layer 1"
     inkscape:groupmode="layer"
     id="layer1"
     transform="translate(0,-254.66665)">
    <g
       id="g3991"
       transform="matrix(1.0869026,0,0,1.0869026,0.29819173,254.96767)">
      <path
         inkscape:connector-curvature="0"
         id="path3977"
         style="fill:#999999;fill-rule:evenodd"
         d="m 1.3219,37.0754 v 0 q 3.1925,3.1925 6.385,0 L 37.078,7.7044 q 3.1925,-3.1925 0,-6.385 v 0 q -3.1925,-3.1925 -6.385,0 L 1.3219,30.6904 q -3.1925,3.1925 0,6.385 z" />
      <path
         inkscape:connector-curvature="0"
         id="path3979"
         style="fill:#999999;fill-rule:evenodd"
         d="m 1.3205,7.7084 29.374,29.3737 c 1.7547,1.755 4.6273,1.755 6.382,0 l 0.0031,-0.0028 c 1.7546,-1.7549 1.7546,-4.6273 0,-6.3822 L 7.7056,1.3234 c -1.755,-1.755 -4.6273,-1.755 -6.3822,0 L 1.3205,1.3262 c -1.7549,1.7546 -1.7549,4.6273 0,6.3822 z" />
    </g>
  </g>
</svg>
