<?xml version="1.0" encoding="UTF-8" standalone="no"?>
<!-- Created with Inkscape (http://www.inkscape.org/) -->

<svg
   xmlns:dc="http://purl.org/dc/elements/1.1/"
   xmlns:cc="http://creativecommons.org/ns#"
   xmlns:rdf="http://www.w3.org/1999/02/22-rdf-syntax-ns#"
   xmlns:svg="http://www.w3.org/2000/svg"
   xmlns="http://www.w3.org/2000/svg"
   xmlns:sodipodi="http://sodipodi.sourceforge.net/DTD/sodipodi-0.dtd"
   xmlns:inkscape="http://www.inkscape.org/namespaces/inkscape"
   width="160"
   height="160"
   viewBox="0 0 42.333332 42.333335"
   version="1.1"
   id="svg8"
   inkscape:version="0.92.1 r15371"
   sodipodi:docname="addimg.svg">
  <defs
     id="defs2" />
  <sodipodi:namedview
     id="base"
     pagecolor="#ffffff"
     bordercolor="#666666"
     borderopacity="1.0"
     inkscape:pageopacity="0.0"
     inkscape:pageshadow="2"
     inkscape:zoom="2.8"
     inkscape:cx="127.27478"
     inkscape:cy="115.38965"
     inkscape:document-units="mm"
     inkscape:current-layer="layer1"
     showgrid="false"
     units="px"
     inkscape:window-width="1600"
     inkscape:window-height="837"
     inkscape:window-x="-8"
     inkscape:window-y="-8"
     inkscape:window-maximized="1" />
  <metadata
     id="metadata5">
    <rdf:RDF>
      <cc:Work
         rdf:about="">
        <dc:format>image/svg+xml</dc:format>
        <dc:type
           rdf:resource="http://purl.org/dc/dcmitype/StillImage" />
        <dc:title></dc:title>
      </cc:Work>
    </rdf:RDF>
  </metadata>
  <g
     inkscape:label="Layer 1"
     inkscape:groupmode="layer"
     id="layer1"
     transform="translate(0,-254.66665)">
    <g
       id="Layer1000"
       transform="matrix(1.1059067,0,0,1.1059067,-0.06679676,254.53334)">
      <g
         id="Layer1001">
        <path
           inkscape:connector-curvature="0"
           id="path30"
           style="fill:#e6e6e6;fill-rule:evenodd"
           d="M 30.689,3.6981 C 29.7479,3.0705 28.8524,2.5517 27.824,2.0769 l -0.6485,1.4392 c 0.9207,0.4093 1.7858,0.9264 2.6226,1.4842 z" />
        <path
           inkscape:connector-curvature="0"
           id="path32"
           style="fill:#e6e6e6;fill-rule:evenodd"
           d="M 35.7083,9.2866 C 35.136,8.337 34.4937,7.4673 33.7728,6.6266 l -1.1866,1.04 c 0.6616,0.7747 1.2464,1.5658 1.7725,2.4386 z" />
        <path
           inkscape:connector-curvature="0"
           id="path34"
           style="fill:#e6e6e6;fill-rule:evenodd"
           d="m 38.3397,17.0209 c -0.0813,-0.9774 -0.3571,-2.2884 -0.65,-3.2272 l -1.5123,0.4498 c 0.2628,0.9102 0.5157,2.0112 0.5942,2.9537 z" />
        <path
           inkscape:connector-curvature="0"
           id="path36"
           style="fill:#e6e6e6;fill-rule:evenodd"
           d="m 37.525,25.1436 c 0.3221,-1.1265 0.5667,-2.0356 0.7444,-3.2037 l -1.5633,-0.22 c -0.1652,1.0726 -0.3864,1.9026 -0.682,2.9378 z" />
        <path
           inkscape:connector-curvature="0"
           id="path38"
           style="fill:#e6e6e6;fill-rule:evenodd"
           d="m 33.4032,32.1894 c 0.7455,-0.8102 1.4099,-1.675 2.0089,-2.5983 l -1.3286,-0.8526 c -0.5579,0.8538 -1.1574,1.6384 -1.8485,2.3899 z" />
        <path
           inkscape:connector-curvature="0"
           id="path40"
           style="fill:#e6e6e6;fill-rule:evenodd"
           d="m 26.7245,36.8974 c 0.9983,-0.4113 2.0055,-0.9538 2.9134,-1.5372 l -0.8626,-1.3223 c -0.8095,0.5295 -1.7688,1.0372 -2.6634,1.4054 z" />
        <path
           inkscape:connector-curvature="0"
           id="path42"
           style="fill:#e6e6e6;fill-rule:evenodd"
           d="m 18.6999,38.3947 c 1.0848,0.0207 2.2087,-0.0173 3.2825,-0.184 l -0.2288,-1.5618 c -0.979,0.1559 -2.0216,0.1862 -3.0126,0.1678 z" />
        <path
           inkscape:connector-curvature="0"
           id="path44"
           style="fill:#e6e6e6;fill-rule:evenodd"
           d="m 10.7734,36.4289 c 0.9997,0.489 1.9964,0.8784 3.0634,1.1959 l 0.4399,-1.5159 C 13.3223,35.8398 12.3574,35.4464 11.467,35.011 Z" />
        <path
           inkscape:connector-curvature="0"
           id="path46"
           style="fill:#e6e6e6;fill-rule:evenodd"
           d="m 4.386,31.3432 c 0.7096,0.8592 1.4486,1.6234 2.2873,2.3573 L 7.706,32.5077 C 6.9324,31.8266 6.2606,31.1338 5.6038,30.3392 Z" />
        <path
           inkscape:connector-curvature="0"
           id="path48"
           style="fill:#e6e6e6;fill-rule:evenodd"
           d="m 0.6817,24.0625 c 0.2716,1.0604 0.6506,2.1018 1.1016,3.0991 l 1.434,-0.6585 C 2.8049,25.5716 2.4605,24.6489 2.2076,23.6611 Z" />
        <path
           inkscape:connector-curvature="0"
           id="path50"
           style="fill:#e6e6e6;fill-rule:evenodd"
           d="m 0.3424,15.9038 c -0.1882,1.0927 -0.2752,2.1659 -0.282,3.2743 h 1.5783 c 0.0068,-1.0208 0.0862,-2.0013 0.2597,-3.0073 z" />
        <path
           inkscape:connector-curvature="0"
           id="path52"
           style="fill:#e6e6e6;fill-rule:evenodd"
           d="M 3.4248,8.3407 C 2.7924,9.2497 2.2711,10.203 1.8,11.2034 l 1.4391,0.6485 c 0.4264,-0.9122 0.9128,-1.7932 1.4882,-2.62 z" />
        <path
           inkscape:connector-curvature="0"
           id="path54"
           style="fill:#e6e6e6;fill-rule:evenodd"
           d="M 9.3674,2.7425 C 8.4396,3.2936 7.524,3.964 6.7088,4.6712 L 7.7414,5.864 C 8.513,5.2081 9.3146,4.6103 10.1863,4.0921 Z" />
        <path
           inkscape:connector-curvature="0"
           id="path56"
           style="fill:#e6e6e6;fill-rule:evenodd"
           d="m 16.825,0.5939 c -0.9904,0.0949 -2.2816,0.343 -3.2278,0.6457 l 0.4499,1.5123 c 0.9431,-0.2705 1.9772,-0.4958 2.9545,-0.5896 z" />
        <path
           inkscape:connector-curvature="0"
           id="path58"
           style="fill:#e6e6e6;fill-rule:evenodd"
           d="M 24.3936,1.0099 C 23.3065,0.7514 22.264,0.5901 21.1497,0.507 l -0.1093,1.5743 c 1.0286,0.0771 1.983,0.2255 2.9863,0.4639 z" />
      </g>
      <g
         id="Layer1002">
        <path
           inkscape:connector-curvature="0"
           id="path61"
           style="fill:#e6e6e6;fill-rule:evenodd"
           d="m 13.3017,14.012 h 12.5958 v 5.3758 H 24.2982 V 15.6114 H 14.1014 v 7.6846 h 6.2674 v 1.5993 H 12.5021 V 14.012 Z m 12.5958,6.954 v 3.9293 H 21.9681 V 23.296 h 2.3301 v -2.33 z" />
        <path
           inkscape:connector-curvature="0"
           id="path63"
           style="fill:#e6e6e6;fill-rule:evenodd"
           d="m 14.8859,22.4615 h 8.6088 L 21.055,19.4188 20.0979,20.451 17.9697,17.7959 Z" />
        <path
           inkscape:connector-curvature="0"
           id="path65"
           style="fill:#e6e6e6;fill-rule:evenodd"
           d="M 24.2982,27.2254 V 24.8953 H 21.9681 V 23.296 h 2.3301 v -2.33 h 1.5993 v 2.33 h 2.33 v 1.5993 h -2.33 v 2.3301 z" />
      </g>
    </g>
  </g>
</svg>
