<?xml version="1.0" encoding="UTF-8" standalone="no"?>
<!-- Created with Inkscape (http://www.inkscape.org/) -->

<svg
   xmlns:dc="http://purl.org/dc/elements/1.1/"
   xmlns:cc="http://creativecommons.org/ns#"
   xmlns:rdf="http://www.w3.org/1999/02/22-rdf-syntax-ns#"
   xmlns:svg="http://www.w3.org/2000/svg"
   xmlns="http://www.w3.org/2000/svg"
   xmlns:sodipodi="http://sodipodi.sourceforge.net/DTD/sodipodi-0.dtd"
   xmlns:inkscape="http://www.inkscape.org/namespaces/inkscape"
   width="160"
   height="160"
   viewBox="0 0 42.333332 42.333335"
   version="1.1"
   id="svg8"
   inkscape:version="0.92.1 r15371"
   sodipodi:docname="attent.svg">
  <defs
     id="defs2" />
  <sodipodi:namedview
     id="base"
     pagecolor="#ffffff"
     bordercolor="#666666"
     borderopacity="1.0"
     inkscape:pageopacity="0.0"
     inkscape:pageshadow="2"
     inkscape:zoom="0.35"
     inkscape:cx="400"
     inkscape:cy="560"
     inkscape:document-units="mm"
     inkscape:current-layer="layer1"
     showgrid="false"
     units="px"
     inkscape:window-width="914"
     inkscape:window-height="720"
     inkscape:window-x="569"
     inkscape:window-y="29"
     inkscape:window-maximized="0" />
  <metadata
     id="metadata5">
    <rdf:RDF>
      <cc:Work
         rdf:about="">
        <dc:format>image/svg+xml</dc:format>
        <dc:type
           rdf:resource="http://purl.org/dc/dcmitype/StillImage" />
        <dc:title></dc:title>
      </cc:Work>
    </rdf:RDF>
  </metadata>
  <g
     inkscape:label="Layer 1"
     inkscape:groupmode="layer"
     id="layer1"
     transform="translate(0,-254.66665)">
    <g
       id="g3694"
       transform="matrix(1.1024248,0,0,1.1024248,0,254.66665)">
      <path
         inkscape:connector-curvature="0"
         id="path3680"
         style="fill:#8d1843;fill-rule:evenodd"
         d="M 19.2,0 C 29.8044,0 38.4001,8.5957 38.4001,19.2 38.4001,29.8044 29.8044,38.4001 19.2,38.4001 8.5957,38.4001 0,29.8044 0,19.2 0,8.5957 8.5957,0 19.2,0 Z M 16.8632,23.9735 15.9454,6.9794 h 6.5116 l -0.9179,16.9941 c -1.5542,0 -3.1217,0 -4.6759,0 z m 4.3012,2.6982 c -1.0443,-1.0443 -2.8822,-1.0443 -3.9265,0 -1.0664,1.0664 -1.0088,2.778 -0.0532,3.891 0.9822,1.1418 3.0507,1.1351 4.0307,0 0.9578,-1.1152 1.0154,-2.8246 -0.051,-3.891 z" />
      <path
         inkscape:connector-curvature="0"
         id="path3682"
         style="fill:none"
         d="M 1e-4,1e-4 V 38.4002 H 38.4002 V 1e-4 Z" />
    </g>
  </g>
</svg>
