<?xml version="1.0" encoding="UTF-8" standalone="no"?>
<!-- Created with Inkscape (http://www.inkscape.org/) -->

<svg
   xmlns:dc="http://purl.org/dc/elements/1.1/"
   xmlns:cc="http://creativecommons.org/ns#"
   xmlns:rdf="http://www.w3.org/1999/02/22-rdf-syntax-ns#"
   xmlns:svg="http://www.w3.org/2000/svg"
   xmlns="http://www.w3.org/2000/svg"
   xmlns:sodipodi="http://sodipodi.sourceforge.net/DTD/sodipodi-0.dtd"
   xmlns:inkscape="http://www.inkscape.org/namespaces/inkscape"
   width="160"
   height="160"
   viewBox="0 0 42.333332 42.333335"
   version="1.1"
   id="svg8"
   inkscape:version="0.92.1 r15371"
   sodipodi:docname="часыс.svg">
  <defs
     id="defs2" />
  <sodipodi:namedview
     id="base"
     pagecolor="#ffffff"
     bordercolor="#666666"
     borderopacity="1.0"
     inkscape:pageopacity="0.0"
     inkscape:pageshadow="2"
     inkscape:zoom="0.35"
     inkscape:cx="400"
     inkscape:cy="560"
     inkscape:document-units="mm"
     inkscape:current-layer="layer1"
     showgrid="false"
     units="px"
     inkscape:window-width="1600"
     inkscape:window-height="837"
     inkscape:window-x="-8"
     inkscape:window-y="-8"
     inkscape:window-maximized="1" />
  <metadata
     id="metadata5">
    <rdf:RDF>
      <cc:Work
         rdf:about="">
        <dc:format>image/svg+xml</dc:format>
        <dc:type
           rdf:resource="http://purl.org/dc/dcmitype/StillImage" />
        <dc:title></dc:title>
      </cc:Work>
    </rdf:RDF>
  </metadata>
  <g
     inkscape:label="Layer 1"
     inkscape:groupmode="layer"
     id="layer1"
     transform="translate(0,-254.66665)">
    <g
       id="g24"
       transform="matrix(1.1024191,0,0,1.1024191,0,254.66687)">
      <path
         inkscape:connector-curvature="0"
         id="path10"
         style="fill:#808080;fill-rule:evenodd"
         d="m 19.2936,7.5712 c 1.0718,0 1.9459,0.874 1.9459,1.9459 v 7.521 h 7.521 c 1.0719,0 1.9459,0.874 1.9459,1.9459 0,1.0719 -0.874,1.9459 -1.9459,1.9459 h -9.4166 c -1.1006,0 -1.9962,-0.8309 -1.9962,-1.9459 V 9.5171 c 0,-1.0719 0.874,-1.9459 1.9459,-1.9459 z M 19.2,-2e-4 c 10.6036,0 19.2001,8.5965 19.2001,19.2 0,10.6036 -8.5965,19.2001 -19.2001,19.2001 C 8.5965,38.3999 0,29.8034 0,19.1998 0,8.5963 8.5965,-2e-4 19.2,-2e-4 Z m 0,4.6183 c 8.0534,0 14.5817,6.5283 14.5817,14.5817 0,8.0534 -6.5283,14.5817 -14.5817,14.5817 -8.0533,0 -14.5816,-6.5283 -14.5816,-14.5817 0,-8.0534 6.5283,-14.5817 14.5816,-14.5817 z" />
      <path
         inkscape:connector-curvature="0"
         id="path12"
         style="fill:none"
         d="M 1e-4,1e-4 V 38.4002 H 38.4002 V 1e-4 Z" />
    </g>
  </g>
</svg>
