<?xml version="1.0" encoding="UTF-8" standalone="no"?>
<!-- Created with Inkscape (http://www.inkscape.org/) -->

<svg
   xmlns:dc="http://purl.org/dc/elements/1.1/"
   xmlns:cc="http://creativecommons.org/ns#"
   xmlns:rdf="http://www.w3.org/1999/02/22-rdf-syntax-ns#"
   xmlns:svg="http://www.w3.org/2000/svg"
   xmlns="http://www.w3.org/2000/svg"
   xmlns:sodipodi="http://sodipodi.sourceforge.net/DTD/sodipodi-0.dtd"
   xmlns:inkscape="http://www.inkscape.org/namespaces/inkscape"
   width="160"
   height="160"
   viewBox="0 0 42.333332 42.333335"
   version="1.1"
   id="svg8"
   inkscape:version="0.92.1 r15371"
   sodipodi:docname="cross-input.svg">
  <defs
     id="defs2" />
  <sodipodi:namedview
     id="base"
     pagecolor="#ffffff"
     bordercolor="#666666"
     borderopacity="1.0"
     inkscape:pageopacity="0.0"
     inkscape:pageshadow="2"
     inkscape:zoom="1.979899"
     inkscape:cx="207.47841"
     inkscape:cy="160.41605"
     inkscape:document-units="mm"
     inkscape:current-layer="layer1"
     showgrid="false"
     units="px"
     inkscape:window-width="1920"
     inkscape:window-height="1001"
     inkscape:window-x="-9"
     inkscape:window-y="-9"
     inkscape:window-maximized="1" />
  <metadata
     id="metadata5">
    <rdf:RDF>
      <cc:Work
         rdf:about="">
        <dc:format>image/svg+xml</dc:format>
        <dc:type
           rdf:resource="http://purl.org/dc/dcmitype/StillImage" />
        <dc:title></dc:title>
      </cc:Work>
    </rdf:RDF>
  </metadata>
  <g
     inkscape:label="Layer 1"
     inkscape:groupmode="layer"
     id="layer1"
     transform="translate(0,-254.66665)">
    <g
       id="g71"
       transform="matrix(0.33808233,0,0,0.33808233,-79.512042,133.83893)">
      <path
         inkscape:connector-curvature="0"
         id="path57"
         style="fill:none"
         d="M 237.6386,360.9448 V 480.945 H 357.6385 V 360.9448 Z" />
      <path
         inkscape:connector-curvature="0"
         id="path59"
         style="fill:#565757;fill-rule:evenodd"
         d="m 330.3485,469.3113 -32.7116,-32.7118 -32.7027,32.7027 c -2.0307,2.3446 -5.0372,3.8262 -8.3837,3.8262 -6.1271,0 -11.0863,-4.9592 -11.0863,-11.0863 0,-3.2502 1.4031,-6.1786 3.6345,-8.2094 l 32.8856,-32.8864 -32.8796,-32.8802 c -2.2314,-2.0307 -3.6346,-4.9592 -3.6346,-8.2094 0,-6.1271 4.9592,-11.0863 11.0863,-11.0863 3.3466,0 6.353,1.4817 8.3838,3.8262 l 32.6967,32.6968 32.7056,-32.7059 c 2.0308,-2.3445 5.0372,-3.8262 8.3838,-3.8262 6.1271,0 11.0863,4.9592 11.0863,11.0863 0,3.2502 -1.4032,6.1787 -3.6346,8.2094 l -32.8887,32.8893 32.8946,32.8955 c 2.2315,2.0307 3.6346,4.9592 3.6346,8.2094 0,6.1271 -4.9592,11.0863 -11.0863,11.0863 -3.3466,0 -6.353,-1.4817 -8.3837,-3.8262 z" />
    </g>
  </g>
</svg>
